<svg xmlns="http://www.w3.org/2000/svg" viewBox="0 0 358.1 448.25"><defs><style>.cls-1{isolation:isolate;}.cls-2{fill:#7a0d4f;}.cls-10,.cls-11,.cls-12,.cls-13,.cls-2,.cls-3,.cls-4,.cls-5,.cls-6,.cls-7,.cls-8,.cls-9{fill-rule:evenodd;}.cls-3{fill:#002180;}.cls-4{fill:#004aa1;}.cls-5{fill:#0070bf;}.cls-6{fill:#0096de;}.cls-7{fill:#7357c2;}.cls-8{fill:#2b85d6;}.cls-9{fill:#ba2bad;}.cls-10{fill:#f09;}.cls-11{fill:#d60582;}.cls-12{fill:#a10a63;}.cls-13{mix-blend-mode:multiply;opacity:0.5;}.cls-14{font-size:301.87px;fill:#fff;font-family:KohinoorDevanagari-Bold, Kohinoor Devanagari;font-weight:700;}</style></defs><g class="cls-1"><g id="Layer_1" data-name="Layer 1"><path class="cls-2" d="M309.62,28.2c-60.48-36.2-59-36.2-119.48,0l59.74,34.49Z" transform="translate(-70.95 -1.05)"/><path class="cls-3" d="M249.88,337.32l-59.74,34.49c60.48,36.2,59,36.2,119.48,0Z" transform="translate(-70.95 -1.05)"/><path class="cls-4" d="M309.34,303l-59.46,34.33,59.74,34.49c8.48-5.07,18.17-10.86,29.43-17.36s21.33-12.12,30-17Z" transform="translate(-70.95 -1.05)"/><path class="cls-5" d="M368.79,268.66,309.34,303l59.74,34.5c30.58-17,45.72-25.27,53.07-38Z" transform="translate(-70.95 -1.05)"/><path class="cls-6" d="M428.25,234.34l-59.46,34.32,53.36,30.81c7.36-12.74,6.94-30,6.39-65Z" transform="translate(-70.95 -1.05)"/><path class="cls-7" d="M428.25,165.68,368.79,200l59.46,34.33.28-.17c-.15-9.88-.31-21.17-.31-34.16s.16-24.29.31-34.17Z" transform="translate(-70.95 -1.05)"/><polygon class="cls-8" points="357.3 233.29 297.84 198.96 238.39 233.29 297.84 267.61 357.3 233.29"/><polygon class="cls-6" points="238.39 233.29 178.93 267.61 238.39 301.94 297.84 267.61 238.39 233.29"/><polygon class="cls-5" points="238.39 301.94 178.93 267.61 119.47 301.94 178.93 336.27 238.39 301.94"/><path class="cls-4" d="M249.88,337.32,190.42,303l-59.74,34.5c8.71,4.84,18.65,10.4,30,17s20.95,12.29,29.43,17.36Z" transform="translate(-70.95 -1.05)"/><path class="cls-5" d="M190.42,303,131,268.66,77.61,299.47c7.35,12.75,22.49,21,53.07,38Z" transform="translate(-70.95 -1.05)"/><polygon class="cls-6" points="119.47 233.29 60.01 267.61 119.47 301.94 178.93 267.61 119.47 233.29"/><polygon class="cls-8" points="178.93 198.96 119.47 233.29 178.93 267.61 238.39 233.29 178.93 198.96"/><polygon class="cls-7" points="238.39 164.63 178.93 198.96 238.39 233.29 297.84 198.96 238.39 164.63"/><polygon class="cls-9" points="297.84 130.3 238.39 164.63 297.84 198.96 357.3 164.63 297.84 130.3"/><path class="cls-10" d="M422.15,100.54l-53.36,30.81,59.46,34.33.29-.17c.55-35,1-52.23-6.39-65Z" transform="translate(-70.95 -1.05)"/><path class="cls-11" d="M369.08,62.53,309.34,97l59.45,34.33,53.36-30.81c-7.35-12.74-22.49-21-53.07-38Z" transform="translate(-70.95 -1.05)"/><polygon class="cls-10" points="297.84 130.3 238.39 95.97 178.93 130.3 238.39 164.63 297.84 130.3"/><path class="cls-12" d="M309.62,28.2,249.88,62.69,309.34,97l59.74-34.49c-8.7-4.85-18.65-10.4-30-17S318.1,33.27,309.62,28.2Z" transform="translate(-70.95 -1.05)"/><polygon class="cls-11" points="178.93 61.64 119.47 95.97 178.93 130.3 238.39 95.97 178.93 61.64"/><polygon class="cls-7" points="178.93 198.96 119.47 164.63 60.01 198.96 119.47 233.29 178.93 198.96"/><polygon class="cls-9" points="178.93 130.3 119.47 164.63 178.93 198.96 238.39 164.63 178.93 130.3"/><polygon class="cls-10" points="119.47 95.97 60.01 130.3 119.47 164.63 178.93 130.3 119.47 95.97"/><polygon class="cls-9" points="119.47 164.63 60.01 130.3 0.55 164.63 60.01 198.96 119.47 164.63"/><path class="cls-7" d="M131,200,71.5,165.68l-.28.16c.16,9.88.32,21.17.32,34.17s-.16,24.28-.32,34.16l.28.17Z" transform="translate(-70.95 -1.05)"/><path class="cls-6" d="M131,268.66,71.5,234.34l-.28.16c-.55,35-1,52.23,6.39,65Z" transform="translate(-70.95 -1.05)"/><polygon class="cls-8" points="60.01 198.96 0.55 233.29 60.01 267.61 119.47 233.29 60.01 198.96"/><path class="cls-10" d="M131,131.35,77.61,100.54c-7.36,12.74-6.94,30-6.39,65l.28.17Z" transform="translate(-70.95 -1.05)"/><path class="cls-11" d="M130.68,62.53c-30.58,17-45.72,25.27-53.07,38L131,131.35,190.42,97Z" transform="translate(-70.95 -1.05)"/><path class="cls-12" d="M190.14,28.2c-8.48,5.07-18.17,10.86-29.43,17.36s-21.32,12.12-30,17L190.42,97l59.46-34.33Z" transform="translate(-70.95 -1.05)"/><path class="cls-13" d="M169.53,298.36l134.18,77,65.37-37.86c72-38,59.21-38.08,58.92-148l.25-47.53-95.41-55.2c-26,32.49-13.47,26.57-46.59,44.6l-70.54-44.6H169.53Z" transform="translate(-70.95 -1.05)"/><path class="cls-13" d="M169.53,298.36l134.18,77,65.37-37.86c72-38,59.21-38.08,58.92-148l-.11,90.42L267,189.69c-26,32.49,52.34-76.37,19.22-58.34l-70.54-44.6H169.53Z" transform="translate(-70.95 -1.05)"/><text class="cls-14" transform="translate(74.13 297.31)">K</text></g></g></svg>