<svg xmlns="http://www.w3.org/2000/svg" viewBox="0 0 1318.5 416.15"><defs><style>.cls-1{isolation:isolate;}.cls-2{fill:#7a0d4f;}.cls-10,.cls-11,.cls-12,.cls-13,.cls-2,.cls-3,.cls-4,.cls-5,.cls-6,.cls-7,.cls-8,.cls-9{fill-rule:evenodd;}.cls-3{fill:#002180;}.cls-4{fill:#004aa1;}.cls-5{fill:#0070bf;}.cls-6{fill:#0096de;}.cls-7{fill:#7357c2;}.cls-8{fill:#2b85d6;}.cls-9{fill:#ba2bad;}.cls-10{fill:#f09;}.cls-11{fill:#d60582;}.cls-12{fill:#a10a63;}.cls-13{mix-blend-mode:multiply;opacity:0.5;}.cls-14{font-size:280.25px;font-family:KohinoorDevanagari-Bold, Kohinoor Devanagari;font-weight:700;}.cls-14,.cls-15{fill:#fff;}</style></defs><g class="cls-1"><g id="Layer_1" data-name="Layer 1"><path class="cls-2" d="M247.58,191.6C191.43,158,192.8,158,136.65,191.6l55.46,32Z" transform="translate(-26 -166.39)"/><path class="cls-3" d="M192.11,478.58l-55.46,32c56.15,33.61,54.78,33.61,110.93,0Z" transform="translate(-26 -166.39)"/><path class="cls-4" d="M247.32,446.71l-55.21,31.87,55.47,32c7.87-4.71,16.87-10.08,27.32-16.11s19.8-11.26,27.88-15.75Z" transform="translate(-26 -166.39)"/><path class="cls-5" d="M302.51,414.84l-55.19,31.87,55.46,32c28.39-15.81,42.44-23.46,49.27-35.3Z" transform="translate(-26 -166.39)"/><path class="cls-6" d="M357.71,383l-55.2,31.87,49.54,28.6c6.83-11.83,6.44-27.83,5.93-60.31Z" transform="translate(-26 -166.39)"/><path class="cls-7" d="M357.71,319.23l-55.2,31.87L357.71,383l.26-.15c-.14-9.18-.29-19.65-.29-31.72s.15-22.54.29-31.72Z" transform="translate(-26 -166.39)"/><polygon class="cls-8" points="331.71 216.58 276.51 184.71 221.32 216.58 276.51 248.45 331.71 216.58"/><polygon class="cls-6" points="221.32 216.58 166.11 248.45 221.32 280.32 276.51 248.45 221.32 216.58"/><polygon class="cls-5" points="221.32 280.32 166.11 248.45 110.91 280.32 166.11 312.19 221.32 280.32"/><path class="cls-4" d="M192.11,478.58l-55.2-31.87-55.46,32c8.08,4.49,17.32,9.65,27.88,15.75s19.45,11.4,27.32,16.11Z" transform="translate(-26 -166.39)"/><path class="cls-5" d="M136.91,446.71l-55.2-31.87-49.53,28.6c6.83,11.84,20.88,19.49,49.27,35.3Z" transform="translate(-26 -166.39)"/><polygon class="cls-6" points="110.91 216.58 55.71 248.45 110.91 280.32 166.11 248.45 110.91 216.58"/><polygon class="cls-8" points="166.11 184.71 110.91 216.58 166.11 248.45 221.32 216.58 166.11 184.71"/><polygon class="cls-7" points="221.32 152.84 166.11 184.71 221.32 216.58 276.51 184.71 221.32 152.84"/><polygon class="cls-9" points="276.51 120.97 221.32 152.84 276.51 184.71 331.71 152.84 276.51 120.97"/><path class="cls-10" d="M352.05,258.76l-49.54,28.6,55.2,31.87.27-.15c.51-32.49.9-48.49-5.93-60.32Z" transform="translate(-26 -166.39)"/><path class="cls-11" d="M302.78,223.47l-55.46,32,55.19,31.87,49.54-28.6c-6.83-11.83-20.88-19.49-49.27-35.29Z" transform="translate(-26 -166.39)"/><polygon class="cls-10" points="276.51 120.97 221.32 89.1 166.11 120.97 221.32 152.84 276.51 120.97"/><path class="cls-12" d="M247.58,191.6l-55.47,32,55.21,31.87,55.46-32c-8.08-4.5-17.32-9.66-27.88-15.76s-19.45-11.4-27.32-16.11Z" transform="translate(-26 -166.39)"/><polygon class="cls-11" points="166.11 57.23 110.91 89.1 166.11 120.97 221.32 89.1 166.11 57.23"/><polygon class="cls-7" points="166.11 184.71 110.91 152.84 55.71 184.71 110.91 216.58 166.11 184.71"/><polygon class="cls-9" points="166.11 120.97 110.91 152.84 166.11 184.71 221.32 152.84 166.11 120.97"/><polygon class="cls-10" points="110.91 89.1 55.71 120.97 110.91 152.84 166.11 120.97 110.91 89.1"/><polygon class="cls-9" points="110.91 152.84 55.71 120.97 0.51 152.84 55.71 184.71 110.91 152.84"/><path class="cls-7" d="M81.71,351.1l-55.2-31.87-.26.15c.15,9.18.3,19.66.3,31.72s-.15,22.54-.3,31.72l.26.15Z" transform="translate(-26 -166.39)"/><path class="cls-6" d="M81.71,414.84,26.51,383l-.26.16c-.51,32.48-.91,48.48,5.93,60.31Z" transform="translate(-26 -166.39)"/><polygon class="cls-8" points="55.71 184.71 0.51 216.58 55.71 248.45 110.91 216.58 55.71 184.71"/><path class="cls-10" d="M81.71,287.36l-49.53-28.6c-6.84,11.83-6.44,27.83-5.93,60.32l.26.15Z" transform="translate(-26 -166.39)"/><path class="cls-11" d="M81.45,223.47C53.06,239.27,39,246.93,32.18,258.76l49.53,28.6,55.2-31.87Z" transform="translate(-26 -166.39)"/><path class="cls-12" d="M136.65,191.6c-7.87,4.71-16.87,10.08-27.32,16.11S89.53,219,81.45,223.47l55.46,32,55.2-31.87Z" transform="translate(-26 -166.39)"/><path class="cls-13" d="M117.52,442.41l124.57,71.48,60.69-35.15c66.83-35.3,55-35.36,54.7-137.41l.23-44.12L269.13,246c-24.18,30.16-12.51,24.67-43.25,41.4L160.39,246H117.52Z" transform="translate(-26 -166.39)"/><path class="cls-13" d="M117.52,442.41l124.57,71.48,60.69-35.15c66.83-35.3,55-35.36,54.7-137.41l-.11,83.94L208,341.52c-24.19,30.17,48.58-70.89,17.84-54.16L160.39,246H117.52Z" transform="translate(-26 -166.39)"/><text class="cls-14" transform="translate(68.81 276.03)">K</text><path class="cls-15" d="M277.28,442.84V308.4h37.23v38.23l-5.24-11.24a43.1,43.1,0,0,1,19.24-21.61q13.23-7.38,32.23-7.38v36.24a43,43,0,0,0-4.37-.75,34.64,34.64,0,0,0-4.13-.25q-16.49,0-26.23,9.24t-9.75,28.49v63.47Z" transform="translate(-26 -166.39)"/><path class="cls-15" d="M399.47,493.31A67.33,67.33,0,0,1,379,490.06a48.36,48.36,0,0,1-17-9l14.24-28a31.31,31.31,0,0,0,10.37,6.5,33,33,0,0,0,11.87,2.25q8,0,12.87-3.87t8.87-12.87l7-16.5,3-4.24,48.47-116h37.24L455.19,451.08q-6.49,16.5-14.86,25.62a47.67,47.67,0,0,1-18.49,12.87A64.22,64.22,0,0,1,399.47,493.31Zm23-45.23L362.74,308.4h40l46.73,112.7Z" transform="translate(-26 -166.39)"/><path class="cls-15" d="M525.66,491.31V308.4h37.23v27.49l-.75,40,2.5,39.73v75.71Zm79.21-46.47q-16.74,0-29.49-7.5t-19.86-22.86q-7.12-15.37-7.12-38.86,0-23.73,6.74-39t19.62-22.74q12.87-7.5,30.11-7.5,19.25,0,34.36,8.62a63.58,63.58,0,0,1,24,24.12q8.87,15.5,8.87,36.48,0,21.24-8.87,36.61a63.87,63.87,0,0,1-24,24Q624.11,444.83,604.87,444.84Zm-6.5-32a33.51,33.51,0,0,0,17.37-4.5A33.08,33.08,0,0,0,628,395.49q4.62-8.37,4.63-19.87,0-11.75-4.63-20A32.47,32.47,0,0,0,615.74,343a34.32,34.32,0,0,0-17.37-4.37A35,35,0,0,0,580.88,343a32.23,32.23,0,0,0-12.37,12.62q-4.62,8.25-4.62,20,0,11.49,4.62,19.87a32.82,32.82,0,0,0,12.37,12.86A34.18,34.18,0,0,0,598.37,412.85Z" transform="translate(-26 -166.39)"/><path class="cls-15" d="M675.83,341.39v-30H769v30Zm71,103.45q-23.74,0-37-12.12t-13.24-36.11V278.67H735.8V395.86q0,8.5,4.38,13.24T752,413.85q9.5,0,16-5l10.24,27.49a39.82,39.82,0,0,1-14.12,6.37A70.14,70.14,0,0,1,746.8,444.84Z" transform="translate(-26 -166.39)"/><path class="cls-15" d="M853.74,444.84q-21.24,0-37.85-9a67.49,67.49,0,0,1-26.11-24.61q-9.51-15.62-9.5-35.61,0-20.24,9.5-35.86a66.62,66.62,0,0,1,26.11-24.49q16.61-8.86,37.85-8.87,21.5,0,38.24,8.87a66.55,66.55,0,0,1,26.23,24.49q9.49,15.63,9.5,35.86t-9.5,35.73A67.71,67.71,0,0,1,892,435.84Q875.22,444.84,853.74,444.84Zm0-32a34.71,34.71,0,0,0,17.62-4.37,32,32,0,0,0,12.24-12.87q4.64-8.49,4.63-20,0-11.75-4.63-20A32.47,32.47,0,0,0,871.36,343,34.32,34.32,0,0,0,854,338.64,35,35,0,0,0,836.5,343a32.23,32.23,0,0,0-12.37,12.62q-4.62,8.25-4.62,20,0,11.49,4.62,20a31.75,31.75,0,0,0,12.37,12.87A34.39,34.39,0,0,0,853.74,412.85Z" transform="translate(-26 -166.39)"/><path class="cls-15" d="M1034.66,445.84a107,107,0,0,1-38.23-6.63,87,87,0,0,1-50.1-47.6,95.61,95.61,0,0,1,0-72.46,85.74,85.74,0,0,1,20.11-28.74,90.71,90.71,0,0,1,30.48-18.86,107.78,107.78,0,0,1,38.49-6.63q23.23,0,41.85,7.75a83,83,0,0,1,31.36,22.49l-25.74,24a64.39,64.39,0,0,0-21-15.12,61.49,61.49,0,0,0-24.73-4.87,62.25,62.25,0,0,0-23,4.12,53.25,53.25,0,0,0-18.12,11.62,51.49,51.49,0,0,0-11.74,17.74,63.62,63.62,0,0,0,0,45.1,51.19,51.19,0,0,0,11.74,17.87,55.3,55.3,0,0,0,18,11.75,59.78,59.78,0,0,0,22.87,4.24,70.07,70.07,0,0,0,23.36-4,69.31,69.31,0,0,0,22.11-13.25l23,29.24a103.57,103.57,0,0,1-33.23,16.61A129.85,129.85,0,0,1,1034.66,445.84Zm33.73-27.49V352.63h37v71Z" transform="translate(-26 -166.39)"/><path class="cls-15" d="M1136.61,442.84V267.92h40.73V442.84Z" transform="translate(-26 -166.39)"/><path class="cls-15" d="M1253.05,442.84h-40.73V267.92H1344.5v32.49h-91.45Zm-3.25-96.21h84v32.49h-84Z" transform="translate(-26 -166.39)"/></g></g></svg>